# xmcd
#
# Track frame offsets:
#	150
#	19588
#	33060
#	51210
#	70080
#	88477
#	110211
#	127100
#	144861
#	168419
#	189099
#	205661
#	222305
#	242013
#	259958
#
# Disc length: 3728 seconds
#
# Revision: 0
# Processed by: cddbd v1.5.1PL2 Copyright (c) Steve Scherf et al.
# Submitted via: EasyCDDAExtractor 8.1.2.3
#
DISCID=d60e8e0f
DTITLE=Larsen - En parallèle
DYEAR=2006
DGENRE=Rap
TTITLE0=Retour De Manivelle
TTITLE1=Va Comprendre
TTITLE2=Challenger Feat Bakari
TTITLE3=Danger
TTITLE4=Une Minute C'est Long Feat 400
TTITLE5=Dis Leur Feat Soprano
TTITLE6=Bienvenue Feat Samat and Lino
TTITLE7=Fatal Feat Amiral
TTITLE8=Derniere Danse
TTITLE9=A Steurci (Remix)
TTITLE10=Toujours La
TTITLE11=Quand J'arme Feat Samat
TTITLE12=Freestyle A L'ancienne Feat La
TTITLE13=Ghetto Guerrier
TTITLE14=Plus Rien A Dire
EXTD=
EXTT0=
EXTT1=
EXTT2=
EXTT3=
EXTT4=
EXTT5=
EXTT6=
EXTT7=
EXTT8=
EXTT9=
EXTT10=
EXTT11=
EXTT12=
EXTT13=
EXTT14=
PLAYORDER=
